<svg xmlns="http://www.w3.org/2000/svg" width="64" height="64" viewBox="0 0 186.71 186.71"><path d="M178.44 84.97c-.12-.25-.27-.41-.42-.6.84-1.25.36-3.37-1.33-4.07-2.57-1.06-5.26-1.86-7.98-2.55 8.21-6.35 12.23-20.9 2.69-27.87-1.21-.89-8.73-3.85-8.6-5.2.24-2.52.3-6.16-.94-8.53-2.31-4.39-6.4-4.94-10.81-5.01-2.4-11.67-12.03-19.63-24.65-13.45-6.68 3.27-11.85-1.8-18.69.43-5.29 1.72-6.5 8.25-7.12 13.05.01-2.15.03-4.3.02-6.45-.01-1.23-.8-2.1-1.91-2.51-8.94-3.29-16.04-3.36-24.96.03-.99.38-2.02 1.29-1.89 2.48.92 8.26 1.71 16.55 2.47 24.83-6.65-9.26-16.72-17.29-26.91-15.59C49.17 22.46 46.11.84 31 .04 16.19-.75 19.22 19.25 22.4 29.3c-3.78-.39-7.68.42-11.48.5-1.7.04-2.64 1.81-1.88 3.28 5.3 10.21 14.04 14.66 24.55 11.72-1.79 4.17-2.19 9.02-1.5 13.38 1.5 9.43 8.24 16.99 15.65 22.6-9.63.42-19.23 1.23-28.44 3.11-.26-.45-.77-.76-1.48-.6-13.87 2.96-14.53 17.78-11.49 29.3.35 1.33 1.5 1.99 2.78 2.12a306 306 0 007.97.7c2.31 2.68 4.35 7.88 5.67 10.4 2.95 5.63 4.63 11.89 6.51 17.93 3.12 10.03 5.91 19.72 10.03 29.4.19.45.49.75.82.98.12.35.36.68.76.92 27.62 16.23 71.66 13 101.69 5.77.5-.12.9-.31 1.26-.53 1.72.56 3.92-.04 4.78-2.2 7.89-20 11.81-41.01 17.18-61.73 13-3.66 21.06-13.14 12.66-31.38zm-77.87-52.46c.4.79 1.88.77 2.17-.24 2.32-8.3 9.69-12.36 17.75-7.51.65.39 1.53.4 2.18 0 9.99-6.17 22.96-5.9 23.47 9.02.05 1.46 1.17 2.64 2.66 2.66 7.7.07 8.82 5.11 8.12 11.86-.12 1.12.92 2.48 2.03 2.67 16.74 2.84 12.51 15.15 4.53 24.71-.23.28-.38.57-.48.88-3.54-.59-7.14-1-10.82-1.17 5.87-4.59 9.73-12.3 6.49-19.63-3.38-7.63-10.71-8.69-17.39-5.82-1.62-4.6-3.88-8.88-8.84-10.55-4.44-1.49-8.63 2.27-11.7 5.93-1.99-5.8-6.01-12.15-12.78-8.82-3.57 1.76-6.01 4.71-7.54 8.13.07-4.05.12-8.08.15-12.12zm-.46 25.82c.41-.14.76-.48.77-.97.15-5.25 1.48-10.23 4.81-14.37 6.38-7.94 10.86 1.55 11.96 7.7.28 1.54 2.69 2.23 3.68.97 2.12-2.69 4.02-4.96 6.92-6.9 5.75-3.85 8.26 7.17 8.91 9.68.44 1.69 2.43 2.43 3.91 1.59 5.33-3 11.04-3.51 12.96 3.3 1.74 6.15-3.97 10.98-8.39 13.88-.84.55-1.18 1.3-1.23 2.04-15.22.23-30.89 2.88-44.6 4.28-.11.01-.2.06-.3.09.2-7.1.41-14.2.6-21.29zm-20.48-32.9c22.38-8.65 15.25 21.18 14.79 32.79-.56 14.16-.95 28.33-1.02 42.5-2.68-.8-3.15-.72-8.11-1.04-1.04-.06-1.78.35-2.27.97-.09-11.73-.66-23.41-1.47-35.13-.34-5.11-7.44-37.96-1.92-40.09zM35.05 42.04c-8.66 1.4-15.53-1.56-20.42-8.33 3.45-.49 6.95-1.02 10.27.15 1.32.46 2.98-1.05 2.42-2.42-2.43-5.93-8.59-26.59 3.67-26.96 12.64-.38 12.16 21.82 12.36 29.3.01.47.21.86.47 1.18-1.83.74-3.66 1.8-5.46 3.29-1.32 1.09-2.4 2.38-3.31 3.79zm6.47.43c4.22-4.26 10.57-4.27 15.75-1.93 8.82 3.98 13.37 12.71 18.1 20.6.57 6.28 1.15 12.56 1.79 18.83-8.06.28-16.35.35-24.67.61-.05-.3-.18-.59-.48-.83-10.03-8.07-22.3-25.35-10.49-37.28zm101.02 131.17c-.6-.22-1.27-.32-2.02-.21-32.35 4.47-63.83 5.62-95.91-1.16.1-.43.11-.88-.09-1.37-4.95-12.01-6.66-25.25-11.35-37.47-1.78-4.65-3.82-9.63-6.91-13.57-1.76-2.25-3.22-3.31-4.77-4.19 41.17 2.65 82.21-1.53 123.33 2.13 5.95.53 11.97.36 17.39-.66-7.84 18.37-13.7 37.44-19.67 56.5zm13.64-62.04c-11.45.43-22.99-1.77-34.37-2.76-19.72-1.72-40.3 1.38-60.1 1.74-11.58.21-23.17.01-34.74-.45-2.42-.1-15.11.81-16.12-2.78-2.08-7.43.22-14.01 5.22-19.09.1.01.18.04.28.04 20.06-1.57 41.82 2.58 61.4-2.56.75 7.01 1.59 14 2.57 20.98.22 1.6 2.73 1.15 2.74-.37 0-.56-.01-1.12-.01-1.69.49.63 1.23 1.07 2.24 1.09l10.13 1.5c1.78.49 3.56-.89 3.57-2.72.06-7.42.23-14.84.43-22.26.12.04.23.09.38.1 24.4 2.07 49.34 2.01 73.82 2.86-.31.56-.47 1.22-.34 1.91 2.89 16.08.13 23.81-17.1 24.46z" fill="#fff"/><path d="M140.28 121.42c-2.98 2.96-5.98 6.09-9.01 9.24-3.32-2.81-6.88-5.39-10.45-7.98-1.92-1.39-4.41 1.84-2.53 3.29 3.33 2.58 6.61 5.23 9.79 8-4 4.11-8.1 8.22-12.39 12.04-.56-.48-1.13-.96-1.69-1.46-3.54-3.14-7.05-6.3-10.56-9.46.86-.68 1.72-1.37 2.6-2.02 1.55-1.14.15-3.73-1.54-2.64-1.21.78-2.37 1.62-3.54 2.44-3.58-3.21-7.17-6.43-10.8-9.59-1.65-1.44-4.07.92-2.43 2.43 3.4 3.11 6.77 6.27 10.13 9.42-4.62 3.5-9 7.28-13.36 11.1-4.66-4.04-9.41-7.97-14.21-11.79 3.27-2.52 6.61-4.94 10.17-7.13 1.3-.8.17-2.57-1.16-1.99-4.22 1.83-8.05 4.27-11.65 7.03-3.89-3.04-7.82-5.96-11.76-8.81a1.9 1.9 0 00-1.01-.73c-.53-.38-1.07-.78-1.6-1.16-1.11-.79-2.54 1.05-1.46 1.9.1.08.19.16.29.24-3.2 1.79-6.25 3.85-7.94 7.25-.82 1.66 1.57 3.1 2.5 1.46 1.84-3.21 5.15-4.77 8.38-6.27 3.3 2.72 6.52 5.55 9.68 8.48-4.27 3.61-8.23 7.64-12.12 11.66-1.62-1.42-3.24-2.83-4.82-4.27-.74-.68-1.78.36-1.1 1.1 1.43 1.57 2.87 3.19 4.32 4.82l-1 1.03c-1.08 1.12.59 2.79 1.71 1.71.31-.3.63-.59.94-.89 3.79 4.25 7.72 8.5 11.93 12.33-1.68 1.11-3.38 2.19-5.15 3.17-.96.54-.29 2.24.77 1.82 2.25-.9 4.41-1.94 6.51-3.09 2.24 1.91 4.55 3.69 6.98 5.25 1.46.94 3-1.16 1.82-2.36-1.68-1.71-3.45-3.35-5.21-5 4.51-2.81 8.74-6.09 12.86-9.55 3.14 3.02 6.31 5.99 9.55 8.86-1.9.8-3.83 1.54-5.83 2.14-1.27.38-.74 2.21.54 1.97 2.59-.49 5.13-1.21 7.64-2.1 4.15 3.55 8.41 6.94 12.92 9.98 1.79 1.2 3.69-1.44 2.24-2.91-3.1-3.16-6.31-6.29-9.56-9.4 5.16-2.44 10.11-5.6 14.81-9.21 2.71 2.61 5.47 5.24 8.33 7.73-.59.77-1.2 1.52-1.73 2.34-1.11 1.73 1.52 3.14 2.69 1.57.47-.63.98-1.24 1.49-1.84 2.85 2.33 5.81 4.48 8.96 6.23 1.81 1.01 3.56-1.33 2.18-2.82-2.33-2.52-4.87-4.88-7.51-7.16 2.81-2.74 5.69-5.41 7.74-8.83 1-1.66-1.49-3.69-2.74-2.11-2.4 3.02-5.15 5.76-7.75 8.61-2.67-2.23-5.39-4.41-8.06-6.61 4.4-3.67 8.54-7.69 12.4-11.8 2.39 2.22 4.73 4.5 6.92 6.93 1.45 1.61 4.18-.5 2.99-2.31-1.98-3-4.28-5.64-6.8-8.06 2.92-3.26 5.7-6.52 8.22-9.68 1.37-1.78-.87-4.19-2.53-2.54zm-72.33 38.4c-4.4-3.99-8.95-7.86-13.44-11.75 4.08-3.87 8.22-7.63 12.55-11.16 4.48 4.24 8.88 8.59 13.31 12.89-4.02 3.48-8.09 6.91-12.42 10.02zm30.26-1.18c-3.54-3.33-7.15-6.62-10.83-9.86 4.34-3.78 8.61-7.64 13-11.26 3.55 3.34 7.09 6.68 10.64 10.01.45.42.9.85 1.35 1.28-4.47 3.71-9.14 7.11-14.16 9.83zM48.02 53.15c-2.38 4-5.47 8.44-5.55 13.28-.02 1.44 2.09 1.4 2.2 0 .34-4.29 3.66-8.24 5.34-12.12.57-1.33-1.21-2.47-1.99-1.16zM57.32 59.69c-5.27 3.28-9.88 7.34-9.84 14 .01 1.99 2.93 1.95 3.06 0 .33-5.09 4.46-8.58 8.3-11.4 1.53-1.12.17-3.64-1.52-2.6zM64.56 69.28c-2.62 2.13-5.91 3.65-8.89 5.2-1.36.71-.17 2.69 1.19 2.04 3.25-1.56 6.78-2.97 9.25-5.68.98-1.07-.46-2.44-1.55-1.56z" fill="#fff"/></svg>