<svg xmlns="http://www.w3.org/2000/svg" viewBox="0 0 397.45 397.45" width="64" height="64"><path d="M260.9 229.83a9 9 0 01-9 9h-43.12a9 9 0 010-18h43.12c4.97 0 9 4.02 9 9zM230.34 57.4a9 9 0 009-9V29.34a9 9 0 00-18 0V48.4a9 9 0 009 9zm-30.56 45.94a9 9 0 009 9h43.12a9 9 0 000-18h-43.12a9 9 0 00-9 9zm52.12 54.24h-43.12a9 9 0 000 18h43.12a9 9 0 000-18zM301.22 57.4a9 9 0 009-9V29.34a9 9 0 00-18 0V48.4a9 9 0 009 9zm-7.68 54.94h43.12a9 9 0 000-18h-43.12c-4.97 0-9 4.03-9 9s4.02 9 9 9zm0 63.24h43.12a9 9 0 000-18h-43.12c-4.97 0-9 4.03-9 9s4.02 9 9 9zM265.78 57.4a9 9 0 009-9V29.34a9 9 0 00-18 0V48.4a9 9 0 009 9zm27.76 181.43h43.12a9 9 0 000-18h-43.12c-4.97 0-9 4.03-9 9s4.02 9 9 9zm-126.39-81.25h-43.12a9 9 0 000 18h43.12a9 9 0 000-18zM203.91 48.4V29.34a9 9 0 00-18 0V48.4a9 9 0 0018 0zm-36.76 45.94h-43.12a9 9 0 000 18h43.12a9 9 0 000-18zm221.3-63.24h-42.79v-1.77a9 9 0 00-18 0V48.4a9 9 0 009 9c4.73 0 8.61-3.65 8.97-8.3h33.82v234.96H208.11a9 9 0 000 18h180.34a9 9 0 009-9V40.1a9 9 0 00-9-9zM164.94 222.62a8.993 8.993 0 010 12.73 8.993 8.993 0 01-12.73 0l-.38-.38-6.86 6.86c12.14 14.33 19.46 32.85 19.46 53.06 0 45.34-36.88 82.22-82.22 82.22C36.88 377.11 0 340.23 0 294.89c0-39 27.3-71.75 63.79-80.14-.07-.45-.1-.91-.1-1.38a9 9 0 019-9h19.06a9 9 0 019 9c0 .47-.04.93-.1 1.38 11.53 2.65 22.15 7.74 31.27 14.68l7.19-7.19-.38-.37c-3.51-3.51-3.51-9.21 0-12.73a8.993 8.993 0 0112.73 0l6.66 6.66.08.08.08.08 6.66 6.66zm-82.72 8.06c-35.41 0-64.22 28.8-64.22 64.21s28.81 64.22 64.22 64.22 64.22-28.81 64.22-64.22-28.81-64.21-64.22-64.21zm-9.98-55.1a9 9 0 009-9V49.1h33.82c.36 4.64 4.24 8.3 8.97 8.3a9 9 0 009-9V29.34a9 9 0 00-18 0v1.77H72.24a9 9 0 00-9 9v126.48c0 4.96 4.03 8.99 9 8.99zm29.04 110.31H91.22v-25.64a9 9 0 00-18 0v34.64a9 9 0 009 9h19.06a9 9 0 000-18zM159.47 57.4a9 9 0 009-9V29.34a9 9 0 00-18 0V48.4a9 9 0 009 9z" fill="#FFF"/></svg>