<svg xmlns="http://www.w3.org/2000/svg" viewBox="0 0 250.32 250.32" width="64" height="64"><path d="M154.58 191.37c4.14 0 7.5-3.36 7.5-7.5 0-4.14-3.36-7.5-7.5-7.5H95.75c-4.14 0-7.5 3.36-7.5 7.5 0 4.14 3.36 7.5 7.5 7.5h58.83zM7.5 93.96h19.82c12.02 42.72 51.33 74.13 97.85 74.13 46.51 0 85.82-31.41 97.85-74.13h19.81c4.14 0 7.5-3.36 7.5-7.5s-3.36-7.5-7.5-7.5h-16.8c.5-4.1.77-8.27.77-12.5 0-4.14-3.36-7.5-7.5-7.5H31.03c-4.14 0-7.5 3.36-7.5 7.5 0 4.23.26 8.4.77 12.5H7.5c-4.14 0-7.5 3.36-7.5 7.5s3.36 7.5 7.5 7.5zm203.97-20c-3.82 44.27-41.07 79.13-86.31 79.13s-82.49-34.86-86.31-79.13h172.62z" fill="#FFF"/><path d="M125.16 132.39c3.39 0 6.15-2.74 6.15-6.12 0-3.39-2.76-6.16-6.15-6.16-3.39 0-6.15 2.76-6.15 6.16.01 3.38 2.77 6.12 6.15 6.12zM125.16 106.93c3.39 0 6.15-2.75 6.15-6.12 0-3.39-2.76-6.15-6.15-6.15-3.39 0-6.15 2.76-6.15 6.16.01 3.36 2.77 6.11 6.15 6.11zM94.53 132.39c3.4 0 6.16-2.74 6.16-6.12a6.17 6.17 0 00-6.16-6.16c-3.39 0-6.15 2.76-6.15 6.16 0 3.38 2.76 6.12 6.15 6.12zM94.53 106.93c3.4 0 6.16-2.75 6.16-6.12 0-3.39-2.76-6.15-6.16-6.15-3.39 0-6.15 2.76-6.15 6.16 0 3.36 2.76 6.11 6.15 6.11zM70.04 100.81c0-3.39-2.76-6.15-6.15-6.15-3.39 0-6.14 2.76-6.14 6.16 0 3.38 2.76 6.12 6.15 6.12 3.39-.01 6.14-2.76 6.14-6.13zM79.22 94.19c3.39 0 6.15-2.74 6.15-6.12 0-3.39-2.76-6.15-6.15-6.15-3.4 0-6.16 2.76-6.16 6.16 0 3.37 2.76 6.11 6.16 6.11zM79.22 119.66c3.39 0 6.15-2.74 6.15-6.12 0-3.39-2.76-6.15-6.15-6.15-3.4 0-6.16 2.76-6.16 6.15 0 3.37 2.76 6.12 6.16 6.12zM186.42 106.93c3.4 0 6.16-2.75 6.16-6.12 0-3.39-2.76-6.15-6.16-6.15-3.39 0-6.14 2.76-6.14 6.16-.01 3.36 2.75 6.11 6.14 6.11zM155.79 132.39c3.39 0 6.15-2.74 6.15-6.12 0-3.39-2.76-6.16-6.15-6.16-3.39 0-6.14 2.76-6.14 6.16-.01 3.38 2.75 6.12 6.14 6.12zM155.79 106.93c3.39 0 6.15-2.75 6.15-6.12 0-3.39-2.76-6.15-6.15-6.15-3.39 0-6.14 2.76-6.14 6.16-.01 3.36 2.75 6.11 6.14 6.11zM171.11 94.19c3.4 0 6.15-2.74 6.15-6.12 0-3.39-2.76-6.15-6.15-6.15-3.4 0-6.16 2.76-6.16 6.16-.01 3.37 2.76 6.11 6.16 6.11zM171.11 119.66c3.4 0 6.15-2.74 6.15-6.12 0-3.39-2.76-6.15-6.15-6.15-3.4 0-6.16 2.76-6.16 6.15-.01 3.37 2.76 6.12 6.16 6.12zM109.85 94.19c3.4 0 6.16-2.74 6.16-6.12 0-3.39-2.76-6.15-6.16-6.15-3.39 0-6.15 2.76-6.15 6.16 0 3.37 2.76 6.11 6.15 6.11zM109.85 119.66c3.4 0 6.16-2.74 6.16-6.12 0-3.39-2.76-6.15-6.16-6.15-3.39 0-6.15 2.76-6.15 6.15 0 3.37 2.76 6.12 6.15 6.12zM109.85 145.13c3.4 0 6.16-2.74 6.16-6.12 0-3.39-2.76-6.15-6.16-6.15-3.39 0-6.15 2.76-6.15 6.15 0 3.37 2.76 6.12 6.15 6.12zM140.48 94.19c3.4 0 6.15-2.74 6.15-6.12 0-3.39-2.76-6.15-6.15-6.15-3.39 0-6.15 2.76-6.15 6.16-.01 3.37 2.75 6.11 6.15 6.11zM140.48 119.66c3.4 0 6.15-2.74 6.15-6.12 0-3.39-2.76-6.15-6.15-6.15-3.39 0-6.15 2.76-6.15 6.15-.01 3.37 2.75 6.12 6.15 6.12zM140.48 145.13c3.4 0 6.15-2.74 6.15-6.12 0-3.39-2.76-6.15-6.15-6.15-3.39 0-6.15 2.76-6.15 6.15-.01 3.37 2.75 6.12 6.15 6.12z" fill="#FFF"/></svg>