<svg xmlns="http://www.w3.org/2000/svg" width="64" height="64"><g fill="#fff" fill-rule="evenodd" stroke="#000" stroke-width=".41"><path d="M34.388 20.066c-.438 1.752-14.5 15.152-20.822 37.315 5.094 3.438 33.842-29.217 33.842-29.217l-6.923-6.431-6.097-1.667z"/><path d="M34.649 19.584c2.46-3.018 4.73-1.655 7.024-.804 2.859.858 4.377-3.835 5.42-10.496-2.182.76-2.537-.71-3.371-1.594l1.92-1.154c.837.126 1.67.111 2.533 1.427.268 1.693.771 6.522-2.726 13.699 2.672 1.853 4.937 4.699.326 9.464l-.667-3.348-3.274 1.988-.622-4.088-3.755 2.408.038-4.47-3.665 1.643.819-4.675z"/></g></svg>