<svg xmlns="http://www.w3.org/2000/svg" viewBox="0 0 62.12 62.12" width="64" height="64"><path d="M45.16 0h-28.2a4.26 4.26 0 00-4.25 4.25v50.64a4.26 4.26 0 004.25 4.25h.33v1.78c0 1.61 2.5 1.61 2.5 0v-1.78h22.7v1.78c0 1.61 2.5 1.61 2.5 0v-1.78h.18a4.26 4.26 0 004.25-4.25V4.25A4.268 4.268 0 0045.16 0zm-28.2 2.5h28.2c.97 0 1.75.79 1.75 1.75V21.9h-31.7V4.25c0-.96.79-1.75 1.75-1.75zm28.2 54.14h-28.2c-.96 0-1.75-.78-1.75-1.75V24.4h31.7v30.48c0 .97-.78 1.76-1.75 1.76z" fill="#FFF"/><path d="M18.52 29.01v6.79c0 1.61 2.5 1.61 2.5 0v-6.78c0-1.62-2.5-1.62-2.5-.01zM21.02 17.95v-6.78c0-1.61-2.5-1.61-2.5 0v6.79c0 1.6 2.5 1.6 2.5-.01z" fill="#FFF"/></svg>